<?xml version="1.0" encoding="UTF-8"?>
<svg id="Ebene_1" xmlns="http://www.w3.org/2000/svg" version="1.1" viewBox="0 0 186.22 44">
  <!-- Generator: Adobe Illustrator 30.0.0, SVG Export Plug-In . SVG Version: 2.1.1 Build 123)  -->
  <defs>
    <style>
      .st0 {
        fill: #969696;
      }

      .st1 {
        fill: #007bb4;
      }
    </style>
  </defs>
  <path class="st0" d="M185.31,6.82c0,1.17-.95,2.12-2.12,2.12s-2.12-.95-2.12-2.12.95-2.12,2.12-2.12,2.12.95,2.12,2.12ZM185.04,6.82c0-1.02-.83-1.84-1.84-1.84s-1.84.83-1.84,1.84.83,1.84,1.84,1.84,1.84-.83,1.84-1.84Z"/>
  <path class="st0" d="M121.02,30.38l6.82-20.34h4.78s2.86,13.06,2.86,13.06l.21.06,7.02-13.12h4.54l.84,20.35h-4.12l-.51-13.96-.26.05-7.35,13.83c-.21.19-1.85.06-2.23.05l-3.4-14.35-.21.06-4.71,14.32h-4.29Z"/>
  <path class="st1" d="M90.34,30.38h-4.04l1.42-9.05c.25-3.63-3.56-1.71-4.8-.09l-1.33,8.93-.12.21h-3.91l1.44-9.55c-.28-3.08-3.87-.99-4.92.47l-1.39,9.08h-3.95l2.02-13.79h3.95l-.17,1.6,1.13-.84c1.47-1.05,4.43-1.55,5.88-.33.51.43.74,1.06,1.09,1.59,1.32-.96,2.94-2.14,4.62-2.27,3.26-.26,4.73,1.6,4.42,4.76l-1.35,9.29Z"/>
  <path class="st0" d="M180.12,10.03l-3,20c-.04.13-.15.13-.26.16-1.71.55-4.82.54-6.6.25-6.78-1.08-7.53-9.73-1.89-12.86,2.07-1.15,4.53-1.37,6.86-1.17l.93-6.38h3.95ZM174.65,19.78h-2.06c-1.5,0-3.19,1.33-3.66,2.73-.8,2.4.11,4.46,2.67,4.9.36.06,1.89.27,2.02-.12l1.02-7.51Z"/>
  <path class="st0" d="M163.39,23.9h-9.25v1.3c0,.46.63,1.4,1.01,1.68,1.98,1.42,5.42.14,7.39-.79l-.67,3.38c-4.13,2.07-10.37,1.74-11.63-3.57-.78-3.29.42-7.04,3.5-8.66,2.4-1.26,6.2-1.41,8.17.69,1.49,1.59,1.62,3.92,1.47,5.97ZM159.52,21.63c.41-3.84-4.52-3.19-4.79,0h4.79Z"/>
  <polygon class="st1" points="115.56 9.94 112.53 30.38 108.58 30.38 111.69 9.94 115.56 9.94"/>
  <polygon class="st1" points="121.19 16.59 119.04 30.38 115.22 30.38 117.24 16.59 121.19 16.59"/>
  <circle class="st1" cx="119.62" cy="12.63" r="2.03"/>
  <path class="st1" d="M61.66,11.05l-.58,3.6c-1.04-.37-2.01-.96-3.11-1.22-1.38-.33-3.66-.45-4.53.94-1.28,2.06,2.23,3.56,3.54,4.5s3.04,2.26,3.55,3.94c.7,2.28-.24,5.1-2.15,6.51-3.36,2.48-8.11,1.36-11.42-.63l.67-3.53c1.52.76,3.05,1.67,4.77,1.91,1.25.17,3,.02,3.73-1.18,1.5-2.46-2.53-4.1-4.08-5.2-2.02-1.44-3.66-3.13-3.24-5.82s2.55-4.4,5.03-4.97c2.68-.62,5.38-.05,7.81,1.15Z"/>
  <polygon class="st1" points="68.14 16.59 66.13 30.38 62.26 30.38 64.28 16.59 68.14 16.59"/>
  <circle class="st1" cx="66.62" cy="12.63" r="2.03"/>
  <path class="st1" d="M99.75,14.15l-.34,2.61c3.47-1.31,7.73.27,8.38,4.18.53,3.18-1.09,6.74-3.85,8.38-2.05,1.22-4.3,1.37-6.63,1.14l-1.93,13.03h-3.95l3.28-21.99c.03-.17-.07-.15-.2-.11-.27.1-1.02.86-1.23,1.12-.12.15-.9,1.43-1.09,1.22-.02-1.97,1.55-3.62,2.93-4.85l.69-4.74h3.95ZM102.41,25.98c1.57-1.64,1.99-6.08-.73-6.83-.63-.17-2.11-.17-2.64.22-.31.23-.98,6.85-1.23,7.73,1.6.23,3.42.11,4.59-1.12Z"/>
  <path class="st1" d="M40.35,20.26c0,10.92-8.84,19.76-19.76,19.76S.83,31.18.83,20.26,9.68.5,20.59.5s19.76,8.85,19.76,19.76ZM35.75,20.27c0-8.38-6.79-15.17-15.16-15.17s-15.16,6.79-15.16,15.17,6.79,15.17,15.16,15.17,15.16-6.79,15.16-15.17Z"/>
  <path class="st0" d="M10.54,17.95c.48-.09.94.1,1.39.25,2.61.9,4.56,2.49,7.51,2.83,3.98.45,6.21-1.42,9.59-2.74,1.79-.7,2.54-.37,2.7,1.63.31,3.93-2.13,8.11-5.46,10.07-6.62,3.91-15.16.08-16.61-7.42-.2-1.05-.59-4.36.88-4.62Z"/>
  <path class="st0" d="M183.52,5.65c.22.04.58.33.62.57.07.45-.52.5-.5.82,0,.1.6.64.6.88-.56.15-.57-.49-.92-.8-.13-.11-.55-.39-.59-.08-.02.16.03.86,0,.89h-.42v-2.27c.37.05.87-.06,1.22,0ZM182.72,6.66c.29-.03.89.13.99-.23.19-.65-.59-.41-.99-.45v.67Z"/>
</svg>