<?xml version="1.0" encoding="UTF-8"?>
<svg id="Ebene_1" xmlns="http://www.w3.org/2000/svg" version="1.1" viewBox="0 0 44 44">
  <!-- Generator: Adobe Illustrator 30.0.0, SVG Export Plug-In . SVG Version: 2.1.1 Build 123)  -->
  <defs>
    <style>
      .st0 {
        fill: #969696;
      }

      .st1 {
        fill: #007bb4;
      }
    </style>
  </defs>
  <path class="st1" d="M43.49,22c0,11.87-9.62,21.5-21.49,21.5S.51,33.87.51,22,10.13.5,22,.5s21.49,9.63,21.49,21.5ZM38.49,22c0-9.11-7.38-16.5-16.49-16.5S5.51,12.89,5.51,22s7.38,16.5,16.49,16.5,16.49-7.39,16.49-16.5Z"/>
  <path class="st0" d="M11.06,19.49c.52-.09,1.03.11,1.51.28,2.84.98,4.96,2.71,8.17,3.08,4.33.49,6.75-1.55,10.43-2.99,1.95-.76,2.77-.41,2.94,1.77.34,4.28-2.31,8.82-5.94,10.96-7.2,4.25-16.49.09-18.07-8.07-.22-1.14-.64-4.74.95-5.03Z"/>
</svg>